<?xml version="1.0" encoding="UTF-8"?>
<svg width="226px" height="183px" viewBox="0 0 226 183" version="1.1" xmlns="http://www.w3.org/2000/svg" xmlns:xlink="http://www.w3.org/1999/xlink">
    <!-- Generator: Sketch 51.2 (57519) - http://www.bohemiancoding.com/sketch -->
    <title>Artboard</title>
    <desc>Created with Sketch.</desc>
    <defs></defs>
    <g id="Artboard" stroke="none" stroke-width="1" fill="none" fill-rule="evenodd">
        <g id="valerieSharp--logo" transform="translate(3.000000, 3.000000)">
            <polygon id="triangle" stroke="#000000" stroke-width="11.4" transform="translate(110.000000, 81.098901) scale(1, -1) translate(-110.000000, -81.098901) " points="110 3.95604396 209.908257 158.241758 10.0917431 158.241758"></polygon>
            <path d="M151.129002,95.9450549 L38.3486239,95.9450549" id="earth--line" stroke="#020100" stroke-width="9" stroke-linecap="square"></path>
            <path d="M185.736321,138.073329 C185.736321,129.27386 182.754395,122.082805 176.790453,116.499949 C170.826511,110.917092 160.440027,105.98133 145.630688,101.692513 C129.615159,97.2558061 117.486426,91.4881735 109.244124,84.3894423 C101.001823,77.2907111 96.8807339,67.7149622 96.8807339,55.6619082 C96.8807339,43.3130737 101.487642,33.2566887 110.701597,25.4924515 C119.915552,17.7282142 131.759495,13.8461538 146.23378,13.8461538 C156.285368,13.8461538 168.447727,18.4677005 182.72086,27.7107939 L176.790453,36.6507368 C164.326587,28.9900457 154.141029,25.1597001 146.23378,25.1597001 C134.506929,25.1597001 125.343369,28.0435164 118.742827,33.8112355 C112.142285,39.5789546 108.842063,46.7515233 108.842063,55.3291568 C108.842063,63.4631196 111.890999,70.2474823 117.988962,75.6824484 C124.086925,81.1174145 134.607428,85.9052889 149.550788,90.0462155 C165.298274,94.4829225 177.276236,100.472387 185.485032,108.014789 C193.693829,115.557191 197.798165,125.50266 197.798165,137.851494 C197.798165,150.717945 193.023733,160.95919 183.474725,168.575537 C173.925717,176.191884 161.746727,180 146.937388,180 C141.400223,180 130.837496,177.369131 115.249207,172.107393 L121.013345,161.656131 C133.756939,166.416958 142.398286,168.797371 146.937388,168.797371 C158.530219,168.797371 167.894807,165.987499 175.031434,160.36767 C182.168061,154.747841 185.736321,147.316468 185.736321,138.073329 Z" id="s--outline" fill="#000000"></path>
            <polygon id="v--outline" stroke="#BDE6BE" stroke-width="5" fill="#BEE5BF" points="0 0 109.98952 170.10989 220 0 207.09574 0 109.98952 150.182031 12.9312212 0"></polygon>
        </g>
    </g>
</svg>