<svg xmlns="http://www.w3.org/2000/svg" xmlns:xlink="http://www.w3.org/1999/xlink" version="1.1" x="0px" y="0px" viewBox="0 0 200 250" enable-background="new 0 0 200 200" xml:space="preserve"><g><g><polygon fill="#000000" points="187.254,158.273 122.146,158.273 122.146,152.045 181.025,152.045 181.025,28.929 122.146,28.929     122.146,22.701 187.254,22.701   "/><polygon fill="#000000" points="77.854,158.273 12.746,158.273 12.746,22.701 77.854,22.701 77.854,28.929 18.975,28.929     18.975,152.045 77.854,152.045   "/><polygon fill="#000000" points="200,171.02 112.457,171.02 112.457,164.791 193.771,164.791 193.771,37.524 184.14,37.524     184.14,31.296 200,31.296   "/><polygon fill="#000000" points="87.543,171.02 0,171.02 0,31.296 15.86,31.296 15.86,37.524 6.229,37.524 6.229,164.791     87.543,164.791   "/></g><g><rect x="96.886" y="114.453" fill="#000000" width="6.229" height="40.995"/><rect x="96.886" y="25.815" fill="#000000" width="6.229" height="40.539"/><g><rect x="96.886" y="72.958" fill="#000000" width="6.229" height="6.92"/><rect x="96.886" y="86.798" fill="#000000" width="6.229" height="6.92"/><rect x="96.886" y="100.639" fill="#000000" width="6.229" height="6.92"/></g><polygon fill="#000000" points="100,195.984 84.429,168.732 84.429,25.815 90.657,25.815 90.657,167.078 100,183.431     109.343,167.078 109.343,25.815 115.571,25.815 115.571,168.732   "/><polygon fill="#000000" points="110.255,170.108 100,159.853 89.745,170.108 85.341,165.705 100,151.043 114.658,165.705   "/><path fill="#000000" d="M115.571,28.929H84.429V13.36c0-2.495,0.972-4.842,2.735-6.608c1.768-1.765,4.113-2.736,6.607-2.736    h12.458c2.495,0,4.841,0.971,6.604,2.736c1.765,1.767,2.737,4.113,2.737,6.608V28.929z M90.657,22.701h18.686V13.36    c0-0.833-0.324-1.617-0.914-2.206c-0.587-0.586-1.368-0.91-2.199-0.91H93.771c-0.831,0-1.614,0.323-2.203,0.912    c-0.586,0.587-0.911,1.371-0.911,2.204V22.701z"/></g><g><g><rect x="48.432" y="85.996" fill="#000000" width="14.176" height="6.229"/><rect x="62.608" y="111.371" fill="#000000" width="15.247" height="6.229"/><rect x="62.608" y="124.053" fill="#000000" width="15.247" height="6.229"/><rect x="48.432" y="98.674" fill="#000000" width="29.422" height="6.229"/><rect x="62.608" y="60.617" fill="#000000" width="15.247" height="6.229"/><rect x="62.608" y="73.304" fill="#000000" width="15.247" height="6.229"/><rect x="48.432" y="47.928" fill="#000000" width="29.422" height="6.229"/></g><g><rect x="137.392" y="85.985" fill="#000000" width="14.177" height="6.229"/><rect x="122.146" y="60.606" fill="#000000" width="15.246" height="6.229"/><rect x="122.146" y="47.928" fill="#000000" width="15.246" height="6.229"/><rect x="122.146" y="73.304" fill="#000000" width="29.423" height="6.229"/><rect x="122.146" y="111.36" fill="#000000" width="15.246" height="6.229"/><rect x="122.146" y="98.674" fill="#000000" width="15.246" height="6.229"/><rect x="122.146" y="124.053" fill="#000000" width="29.423" height="6.229"/></g><g><path fill="#000000" d="M172.329,92.219c-3.051,0-5.919-1.189-8.074-3.347c-2.156-2.155-3.345-5.021-3.345-8.072V46.175     c0-1.387-0.539-2.69-1.519-3.668c-0.981-0.982-2.284-1.522-3.672-1.522h-4.151v-6.228h4.151c3.051,0,5.919,1.188,8.075,3.345     c2.156,2.154,3.344,5.021,3.344,8.073V80.8c0,1.386,0.539,2.688,1.52,3.668c0.981,0.981,2.284,1.522,3.671,1.522V92.219z"/><path fill="#000000" d="M155.72,143.451h-4.151v-6.229h4.151c1.388,0,2.69-0.54,3.67-1.519c0.98-0.981,1.521-2.286,1.521-3.672     V97.409c0-3.05,1.188-5.918,3.346-8.075c2.156-2.157,5.022-3.344,8.073-3.344v6.229c-1.387,0-2.689,0.538-3.67,1.519     c-0.979,0.981-1.521,2.284-1.521,3.671v34.624c0,3.05-1.188,5.918-3.345,8.075C161.638,142.264,158.771,143.451,155.72,143.451z"/></g><g><path fill="#000000" d="M27.671,92.219V85.99c1.387,0,2.69-0.541,3.668-1.521c0.982-0.981,1.522-2.284,1.522-3.67V46.175     c0-3.052,1.188-5.919,3.347-8.075c2.153-2.156,5.021-3.344,8.072-3.344h4.152v6.228H44.28c-1.387,0-2.69,0.54-3.668,1.52     c-0.982,0.981-1.522,2.284-1.522,3.671V80.8c0,3.051-1.188,5.917-3.347,8.075C33.59,91.029,30.722,92.219,27.671,92.219z"/><path fill="#000000" d="M48.432,143.451H44.28c-3.051,0-5.917-1.188-8.073-3.344c-2.157-2.157-3.345-5.025-3.345-8.075V97.409     c0-1.387-0.541-2.689-1.521-3.671c-0.979-0.981-2.283-1.519-3.669-1.519V85.99c3.051,0,5.917,1.187,8.073,3.344     c2.157,2.156,3.345,5.024,3.345,8.075v34.624c0,1.386,0.541,2.69,1.521,3.672c0.979,0.979,2.283,1.519,3.669,1.519h4.152V143.451     z"/></g></g></g><text x="0" y="215" fill="#000000" font-size="5px" font-weight="bold" font-family="'Helvetica Neue', Helvetica, Arial-Unicode, Arial, Sans-serif">Created by Maxim Basinski</text><text x="0" y="220" fill="#000000" font-size="5px" font-weight="bold" font-family="'Helvetica Neue', Helvetica, Arial-Unicode, Arial, Sans-serif">from the Noun Project</text></svg>