<svg xmlns="http://www.w3.org/2000/svg" xmlns:xlink="http://www.w3.org/1999/xlink" version="1.1" x="0px" y="0px" viewBox="0 0 200 250" enable-background="new 0 0 200 200" xml:space="preserve"><g><g><path fill="#000000" d="M100.002,153.653c-29.587,0-53.658-24.068-53.658-53.654c0-29.586,24.07-53.658,53.658-53.658    c29.586,0,53.654,24.072,53.654,53.658C153.656,129.585,129.588,153.653,100.002,153.653z M100.002,53.29    c-25.756,0-46.709,20.954-46.709,46.71c0,25.752,20.954,46.706,46.709,46.706s46.706-20.953,46.706-46.706    C146.708,74.243,125.758,53.29,100.002,53.29z"/><path fill="#000000" d="M110.175,200H89.869l-4.328-21.493c-4.144-0.761-8.255-1.864-12.275-3.3l-14.438,16.448l-17.586-10.133    l7.015-20.772c-3.23-2.754-6.247-5.77-9.01-9.012l-20.753,7.003L8.373,141.207l16.406-14.487    c-1.429-4.014-2.533-8.115-3.296-12.247l-21.426-4.288L0.019,89.821l21.463-4.319c0.761-4.128,1.864-8.225,3.292-12.233    L8.371,58.751l10.124-17.496l20.75,6.977c2.755-3.23,5.772-6.249,9.008-9.011l-7.011-20.785L58.827,8.322l14.451,16.436    c4.02-1.433,8.129-2.537,12.268-3.298L89.869,0h20.303l4.321,21.467c4.132,0.763,8.233,1.865,12.25,3.296l14.446-16.442    l17.591,10.115l-7.012,20.767c3.251,2.766,6.275,5.787,9.038,9.023l20.736-6.971l10.115,17.496l-16.37,14.481    c1.436,4.023,2.543,8.138,3.312,12.286l21.382,4.301v20.365l-21.382,4.271c-0.769,4.149-1.879,8.266-3.317,12.298l16.376,14.451    l-10.112,17.537l-20.742-6.993c-2.766,3.238-5.793,6.26-9.038,9.02l7.012,20.752l-17.555,10.136l-14.467-16.454    c-4.018,1.433-8.122,2.536-12.259,3.299L110.175,200z M95.557,193.052h8.928l4.152-20.655l2.407-0.362    c5.232-0.793,10.44-2.192,15.474-4.161l2.268-0.887l13.894,15.803l7.693-4.439l-6.734-19.935l1.903-1.52    c4.201-3.354,8.037-7.181,11.399-11.379l1.52-1.894l19.91,6.716l4.431-7.684l-15.728-13.882l0.884-2.262    c1.976-5.052,3.381-10.271,4.18-15.516l0.368-2.407l20.528-4.102V95.51l-20.531-4.128l-0.365-2.403    c-0.802-5.249-2.204-10.465-4.174-15.501l-0.881-2.26l15.719-13.904l-4.431-7.662l-19.913,6.693l-1.517-1.893    c-3.354-4.184-7.189-8.014-11.396-11.38l-1.9-1.52l6.729-19.934l-7.718-4.439l-13.878,15.796l-2.268-0.884    c-5.037-1.968-10.242-3.367-15.472-4.16l-2.403-0.365l-4.149-20.619h-8.928l-4.152,20.614l-2.407,0.363    c-5.235,0.792-10.445,2.191-15.484,4.159l-2.266,0.885L57.364,17.179l-7.717,4.439l6.729,19.946l-1.894,1.52    c-4.192,3.362-8.018,7.189-11.371,11.375l-1.519,1.894l-19.928-6.703l-4.433,7.662l15.75,13.942l-0.882,2.259    c-1.963,5.022-3.359,10.22-4.152,15.443l-0.365,2.407L6.977,95.509l0.018,8.979l20.587,4.123l0.365,2.406    c0.793,5.227,2.192,10.429,4.159,15.462l0.883,2.262L17.23,142.655l4.436,7.684l19.925-6.725l1.52,1.896    c3.366,4.201,7.192,8.025,11.373,11.373l1.898,1.52l-6.736,19.943l7.716,4.445l13.871-15.803l2.269,0.89    c5.037,1.973,10.248,3.372,15.491,4.162l2.408,0.361L95.557,193.052z"/></g><g><polygon fill="#000000" points="83.104,117.353 65.752,100.004 83.104,82.648 88.016,87.561 75.578,100.001 88.016,112.438   "/><polygon fill="#000000" points="116.9,117.353 111.987,112.438 124.428,100.002 111.987,87.564 116.9,82.651 134.253,100.002       "/><rect x="96.528" y="74.286" transform="matrix(0.9847 0.174 -0.174 0.9847 18.9237 -15.8737)" fill="#000000" width="6.949" height="51.428"/></g><g><rect x="96.528" y="33.218" fill="#000000" width="6.949" height="6.948"/><rect x="96.528" y="159.833" fill="#000000" width="6.949" height="6.948"/><rect x="33.221" y="96.525" fill="#000000" width="6.948" height="6.949"/><rect x="159.836" y="96.525" fill="#000000" width="6.948" height="6.949"/></g></g><text x="0" y="215" fill="#000000" font-size="5px" font-weight="bold" font-family="'Helvetica Neue', Helvetica, Arial-Unicode, Arial, Sans-serif">Created by Maxim Basinski</text><text x="0" y="220" fill="#000000" font-size="5px" font-weight="bold" font-family="'Helvetica Neue', Helvetica, Arial-Unicode, Arial, Sans-serif">from the Noun Project</text></svg>