<svg xmlns="http://www.w3.org/2000/svg" xmlns:xlink="http://www.w3.org/1999/xlink" version="1.1" x="0px" y="0px" viewBox="0 0 66 82.5" style="enable-background:new 0 0 66 66;" xml:space="preserve"><style type="text/css">
	.st0{fill:#000100;}
</style><g><path class="st0" d="M0.3,0.3V50h65.5V0.3H0.3z M64.3,1.8v9.4H1.8V1.8H64.3z M1.8,48.5V12.6h62.5v35.8H1.8z"/><path class="st0" d="M58.7,9.7c1.8,0,3.2-1.4,3.2-3.2s-1.4-3.2-3.2-3.2s-3.2,1.4-3.2,3.2S56.9,9.7,58.7,9.7z    M58.7,4.9c0.9,0,1.7,0.8,1.7,1.7s-0.8,1.7-1.7,1.7S57,7.5,57,6.6S57.8,4.9,58.7,4.9z"/><path class="st0" d="M49.9,9.7c1.8,0,3.2-1.4,3.2-3.2s-1.4-3.2-3.2-3.2s-3.2,1.4-3.2,3.2S48.2,9.7,49.9,9.7z    M49.9,4.9c0.9,0,1.7,0.8,1.7,1.7s-0.8,1.7-1.7,1.7s-1.7-0.8-1.7-1.7S49,4.9,49.9,4.9z"/><path class="st0" d="M41.1,9.7C41.1,9.7,41.1,9.7,41.1,9.7c1.8,0,3.2-1.4,3.3-3.1c0.1-1.8-1.3-3.2-3.1-3.3   c-1.8,0-3.2,1.3-3.3,3.1C37.9,8.2,39.3,9.7,41.1,9.7z M41.2,4.9c1,0,1.7,0.8,1.7,1.7c0,0.9-0.8,1.6-1.7,1.6c-0.9,0-1.7-0.8-1.6-1.7   C39.5,5.6,40.3,4.9,41.2,4.9z"/><rect x="4.8" y="5.8" class="st0" width="22.4" height="1.5"/><polygon class="st0" points="15.2,20 4.7,30.4 15.2,40.9 16.3,39.8 6.8,30.4 16.3,21  "/><polygon class="st0" points="49.7,21 59.2,30.4 49.7,39.8 50.8,40.9 61.3,30.4 50.8,20  "/><rect x="16.8" y="24.3" class="st0" width="10.1" height="1.5"/><rect x="29.7" y="24.3" class="st0" width="5.9" height="1.5"/><rect x="38" y="24.3" class="st0" width="4.9" height="1.5"/><rect x="45.8" y="24.3" class="st0" width="3.5" height="1.5"/><rect x="16.8" y="29.7" class="st0" width="2.1" height="1.5"/><rect x="21.7" y="29.7" class="st0" width="9.9" height="1.5"/><rect x="34" y="29.7" class="st0" width="6.9" height="1.5"/><rect x="43.8" y="29.7" class="st0" width="5.5" height="1.5"/><rect x="16.8" y="35" class="st0" width="8.1" height="1.5"/><rect x="27.7" y="35" class="st0" width="9.9" height="1.5"/><rect x="40" y="35" class="st0" width="4.9" height="1.5"/><rect x="47.8" y="35" class="st0" width="1.5" height="1.5"/><path class="st0" d="M4.1,65.8h57V51.1h-57V65.8z M5.6,52.6h54v11.6h-54V52.6z"/><rect x="7.5" y="54" class="st0" width="2.3" height="1.5"/><rect x="12.8" y="54" class="st0" width="2.3" height="1.5"/><rect x="18.2" y="54" class="st0" width="2.3" height="1.5"/><rect x="23.5" y="54" class="st0" width="2.3" height="1.5"/><rect x="28.8" y="54" class="st0" width="2.3" height="1.5"/><rect x="34.2" y="54" class="st0" width="2.3" height="1.5"/><rect x="39.5" y="54" class="st0" width="2.3" height="1.5"/><rect x="44.8" y="54" class="st0" width="2.3" height="1.5"/><rect x="50.2" y="54" class="st0" width="2.3" height="1.5"/><rect x="55.5" y="54" class="st0" width="2.3" height="1.5"/><rect x="7.5" y="57.7" class="st0" width="2.3" height="1.5"/><rect x="12.8" y="57.7" class="st0" width="2.3" height="1.5"/><rect x="18.2" y="57.7" class="st0" width="2.3" height="1.5"/><rect x="23.5" y="57.7" class="st0" width="2.3" height="1.5"/><rect x="28.8" y="57.7" class="st0" width="2.3" height="1.5"/><rect x="34.2" y="57.7" class="st0" width="2.3" height="1.5"/><rect x="39.5" y="57.7" class="st0" width="2.3" height="1.5"/><rect x="44.8" y="57.7" class="st0" width="2.3" height="1.5"/><rect x="50.2" y="57.7" class="st0" width="2.3" height="1.5"/><rect x="55.5" y="57.7" class="st0" width="2.3" height="1.5"/><rect x="7.5" y="61.4" class="st0" width="2.3" height="1.5"/><rect x="12.8" y="61.4" class="st0" width="2.3" height="1.5"/><rect x="18.2" y="61.4" class="st0" width="12.9" height="1.5"/><rect x="34.2" y="61.4" class="st0" width="2.3" height="1.5"/><rect x="39.5" y="61.4" class="st0" width="2.3" height="1.5"/><rect x="44.8" y="61.4" class="st0" width="2.3" height="1.5"/><rect x="50.2" y="61.4" class="st0" width="2.3" height="1.5"/><rect x="55.5" y="61.4" class="st0" width="2.3" height="1.5"/></g><text x="0" y="81" fill="#000000" font-size="5px" font-weight="bold" font-family="'Helvetica Neue', Helvetica, Arial-Unicode, Arial, Sans-serif">Created by Creative Stall</text><text x="0" y="86" fill="#000000" font-size="5px" font-weight="bold" font-family="'Helvetica Neue', Helvetica, Arial-Unicode, Arial, Sans-serif">from the Noun Project</text></svg>