<svg xmlns="http://www.w3.org/2000/svg" xmlns:xlink="http://www.w3.org/1999/xlink" version="1.1" x="0px" y="0px" viewBox="0 0 66 82.5" style="enable-background:new 0 0 66 66;" xml:space="preserve"><style type="text/css">
	.st0{fill:#000100;}
</style><g><path class="st0" d="M65.9,58.8l-12.3-9.9l1.5-1.8L54,46.1l-1.1,1.4V17.4h12.5V7.1c0-3.9-3.1-7-7-7v0H7.1   c-3.9,0-7,3.1-7,7v58.3h52.7V60l7.3,5.9L65.9,58.8z M44.9,47.8c-4.9,6.1-13.8,7.1-20,2.1c-6.1-4.9-7.1-13.9-2.1-20   c4.9-6.1,13.9-7.1,20-2.1c3,2.4,4.8,5.8,5.2,9.5C48.4,41.1,47.3,44.8,44.9,47.8z M46.1,48.7c0.3-0.4,0.6-0.8,0.9-1.2l3.6,2.9   c-1.4,1.7-1,1.2-1.9,2.3l-3.5-2.9C45.5,49.5,45.8,49.1,46.1,48.7z M63.8,7.1v8.8h-11V7.1c0-3,2.5-5.5,5.5-5.5   C61.4,1.6,63.8,4.1,63.8,7.1z M51.3,63.8H1.6V7.1c0-3,2.5-5.5,5.5-5.5H54c-1.6,1.3-2.7,3.3-2.7,5.5c0,16.3,0,26.5,0,42l-3.6-2.9   c3.5-6.5,1.9-14.8-4-19.6C37,21.2,27.1,22.2,21.7,29S17.3,45.6,24,51.1c6.1,4.9,14.5,4.4,20-0.2l3.7,3l-1,1.2l0,0l-1.5,1.8l1.2,0.9   l1.5-1.8l3.4,2.8V63.8z M48.8,54.8c2.9-3.6,2.3-2.8,3.9-4.8L63.8,59l-3.9,4.8L48.8,54.8z"/><rect x="8.6" y="8.7" class="st0" width="35.3" height="1.5"/><rect x="8.6" y="15.9" class="st0" width="35.3" height="1.5"/><rect x="8.6" y="23.2" class="st0" width="15.3" height="1.5"/><rect x="8.6" y="30.4" class="st0" width="9.1" height="1.5"/><rect x="8.6" y="37.7" class="st0" width="7.4" height="1.5"/><rect x="8.6" y="45" class="st0" width="8.8" height="1.5"/><rect x="8.6" y="52.2" class="st0" width="14.2" height="1.5"/><rect x="8.6" y="59.5" class="st0" width="35.3" height="1.5"/><path class="st0" d="M33.9,38.5c2.2,0,4-1.8,4-4s-1.8-4-4-4s-4,1.8-4,4S31.7,38.5,33.9,38.5z M33.9,32   c1.4,0,2.5,1.1,2.5,2.5S35.3,37,33.9,37s-2.5-1.1-2.5-2.5S32.5,32,33.9,32z"/><path class="st0" d="M33.9,38.9c-4,0-7.8,2.6-8.5,8.3h17C41.7,41.7,38,38.9,33.9,38.9z M27.1,45.7   c0.7-3.1,3.5-5.3,6.8-5.3s6,2.2,6.8,5.3H27.1z"/></g><text x="0" y="81" fill="#000000" font-size="5px" font-weight="bold" font-family="'Helvetica Neue', Helvetica, Arial-Unicode, Arial, Sans-serif">Created by Creative Stall</text><text x="0" y="86" fill="#000000" font-size="5px" font-weight="bold" font-family="'Helvetica Neue', Helvetica, Arial-Unicode, Arial, Sans-serif">from the Noun Project</text></svg>