<svg xmlns="http://www.w3.org/2000/svg" xmlns:xlink="http://www.w3.org/1999/xlink" version="1.1" x="0px" y="0px" viewBox="0 0 66 82.5" style="enable-background:new 0 0 66 66;" xml:space="preserve"><style type="text/css">
	.st0{fill:#000100;}
</style><g><path class="st0" d="M9.2,39.1h47.5V9.3H9.2V39.1z M10.7,10.8h44.5v26.8H10.7V10.8z"/><path class="st0" d="M66,60.7l-5.2-17.2V5.3H5.2v38.2L0,60.7H66z M2,59.2l4.5-14.8h53L64,59.2H2z M6.7,6.8h52.6   v36.1H6.7V6.8z"/><path class="st0" d="M26.7,50.7l-2.5,5.8h17.5l-2.5-5.8H26.7z M26.5,55l1.2-2.8h10.6l1.2,2.8H26.5z"/><rect x="29.4" y="40.3" class="st0" width="7.1" height="1.5"/><path class="st0" d="M45.7,17.9l-3.9-4.3c-0.1-0.2-0.3-0.2-0.6-0.2c-14.2,0-1.8,0-16.4,0c-0.2,0-0.4,0.1-0.6,0.2   l-3.9,4.3c-0.2,0.3-0.2,0.7,0,1l12.1,15.9c0.1,0.2,0.4,0.3,0.6,0.3c0.2,0,0.5-0.1,0.6-0.3l12.1-15.9C45.9,18.6,45.9,18.2,45.7,17.9   z M27.6,19.1l3.5,11.4l-8.7-11.4H27.6z M29.2,19.1h7.7L33,31.7L29.2,19.1z M38.4,19.1h5.2l-8.7,11.4L38.4,19.1z M43.4,17.6h-5.1   l-1-2.8h3.5L43.4,17.6z M35.8,14.8l1,2.8h-7.6l1-2.8H35.8z M25.1,14.8h3.5l-1,2.8h-5.1L25.1,14.8z"/></g><text x="0" y="81" fill="#000000" font-size="5px" font-weight="bold" font-family="'Helvetica Neue', Helvetica, Arial-Unicode, Arial, Sans-serif">Created by Creative Stall</text><text x="0" y="86" fill="#000000" font-size="5px" font-weight="bold" font-family="'Helvetica Neue', Helvetica, Arial-Unicode, Arial, Sans-serif">from the Noun Project</text></svg>