<svg xmlns="http://www.w3.org/2000/svg" xmlns:xlink="http://www.w3.org/1999/xlink" version="1.1" x="0px" y="0px" viewBox="0 0 200 250" enable-background="new 0 0 200 200" xml:space="preserve"><g><g><path d="M183.617,147.3H16.386V46.738c0-2.235,0.875-4.34,2.462-5.923c1.562-1.581,3.67-2.459,5.921-2.459H175.23    c2.231,0,4.337,0.872,5.929,2.455c1.591,1.6,2.458,3.701,2.458,5.927V147.3z M22.406,141.279h155.192V46.738    c0-0.625-0.246-1.219-0.698-1.672c-0.441-0.44-1.04-0.69-1.669-0.69H24.769c-0.631,0-1.218,0.243-1.654,0.685    c-0.462,0.461-0.709,1.053-0.709,1.678V141.279z"/><polygon points="170.684,144.29 164.664,144.29 164.664,57.304 35.339,57.304 35.339,144.29 29.319,144.29 29.319,51.284     170.684,51.284   "/><path d="M189.815,161.645H10.183c-2.709,0-5.265-1.056-7.196-2.973C1.059,156.748,0,154.189,0,151.462v-10.183h200v10.183    c0,2.726-1.058,5.283-2.981,7.204C195.088,160.588,192.53,161.645,189.815,161.645z M6.021,147.3v4.162    c0,1.117,0.431,2.162,1.213,2.943c0.791,0.784,1.838,1.219,2.949,1.219h179.633c1.113,0,2.161-0.434,2.952-1.221    c0.781-0.779,1.213-1.825,1.213-2.941V147.3H6.021z"/></g><g><rect x="49.71" y="65.872" width="21.993" height="6.021"/><rect x="71.703" y="88.865" width="23.671" height="6.02"/><rect x="71.703" y="123.348" width="23.671" height="6.02"/><rect x="49.71" y="77.363" width="45.664" height="6.02"/><rect x="49.71" y="100.362" width="21.993" height="6.02"/><rect x="49.71" y="111.846" width="45.664" height="6.02"/><rect x="104.63" y="88.865" width="45.663" height="6.02"/><rect x="104.63" y="123.348" width="45.663" height="6.02"/><rect x="104.63" y="77.363" width="23.67" height="6.02"/><rect x="104.63" y="111.846" width="23.67" height="6.02"/></g></g></svg>
