<svg xmlns="http://www.w3.org/2000/svg" xmlns:xlink="http://www.w3.org/1999/xlink" version="1.1" x="0px" y="0px" viewBox="0 0 200 250" enable-background="new 0 0 200 200" xml:space="preserve"><g><g><g><rect x="122.233" y="155.626" fill="#000000" width="6.452" height="27.433"/><rect x="71.318" y="155.626" fill="#000000" width="6.452" height="27.433"/></g><rect x="65.71" y="152.399" fill="#000000" width="68.584" height="6.452"/><rect x="65.71" y="166.118" fill="#000000" width="68.584" height="6.451"/><rect x="65.71" y="179.833" fill="#000000" width="68.584" height="6.452"/><rect x="85.664" y="193.549" fill="#000000" width="28.673" height="6.451"/><path fill="#000000" d="M128.68,158.852H71.313v-3.226c0-13.31-5.661-26.109-15.531-35.112l-0.381-0.333    c-0.47-0.408-0.933-0.814-1.386-1.195C39.74,105.939,31.611,87.531,31.611,68.39C31.611,30.68,62.29,0,100.001,0    c37.709,0,68.388,30.68,68.388,68.39c0,19.141-8.132,37.547-22.309,50.504c-0.667,0.569-1.258,1.096-1.834,1.622    c-9.894,8.98-15.566,21.777-15.566,35.109V158.852z M77.668,152.399h44.658c0.846-13.97,7.146-27.186,17.579-36.657    c0.633-0.576,1.282-1.156,1.915-1.69c12.753-11.657,20.117-28.33,20.117-45.662c0-34.152-27.783-61.938-61.937-61.938    c-34.152,0-61.939,27.786-61.939,61.938c0,17.333,7.363,34.006,20.201,45.743c0.385,0.319,0.882,0.753,1.386,1.192l0.427,0.375    C70.533,125.238,76.822,138.453,77.668,152.399z"/><g><rect x="105.376" y="131.253" fill="#000000" width="6.452" height="24.373"/><rect x="88.173" y="131.253" fill="#000000" width="6.452" height="24.373"/></g></g><g><path fill="#000000" d="M100.001,121.784L53.764,95.086V41.69l46.237-26.697l46.235,26.697v53.396L100.001,121.784z     M60.216,91.361l39.785,22.973l39.784-22.973V45.415l-39.784-22.971L60.216,45.415V91.361z"/><g><rect x="96.775" y="52.26" fill="#000000" width="6.451" height="6.452"/><rect x="96.775" y="65.163" fill="#000000" width="6.451" height="6.452"/><rect x="96.775" y="78.066" fill="#000000" width="6.451" height="6.451"/></g><g><polygon fill="#000000" points="84.288,85.91 66.767,68.389 84.286,50.865 88.849,55.427 75.89,68.389 88.849,81.348    "/><polygon fill="#000000" points="115.715,85.91 111.153,81.347 124.115,68.389 111.153,55.427 115.715,50.865 133.238,68.389         "/></g></g></g></svg>
