<svg xmlns="http://www.w3.org/2000/svg" xmlns:xlink="http://www.w3.org/1999/xlink" version="1.1" x="0px" y="0px" viewBox="0 0 66 82.5" style="enable-background:new 0 0 66 66;" xml:space="preserve"><style type="text/css">
	.st0{fill:#000100;}
	.st1{fill:none;stroke:#000000;stroke-width:1.5;stroke-miterlimit:10;}
</style><g><path class="st0" d="M33,19.4c-7.7,0-14,6.1-14,13.6c0,7.5,6.4,13.6,14,13.6c7.7,0,14-6.1,14-13.6   S40.7,19.4,33,19.4z M45.5,32.3H33.8V20.9C40.1,21.3,45.1,26.2,45.5,32.3z M20.5,33c0-6.4,5.2-11.7,11.8-12.1v11.9L25.9,43   C22.6,40.8,20.5,37.1,20.5,33z M33,45.1c-2.1,0-4.1-0.5-5.8-1.4l6.2-10h12.1C45.1,40.1,39.7,45.1,33,45.1z"/><path class="st0" d="M65,0.3H52.6c-0.4,0-0.8,0.3-0.8,0.8v12.1C46.7,8.5,40.1,6,33.1,6c-7.1,0-13.9,2.7-19,7.3V1   c0-0.4-0.3-0.8-0.8-0.8H1C0.6,0.3,0.3,0.6,0.3,1v53.4c0,0.1,0.1,0.3,0.1,0.4l6.2,10.6c0.3,0.5,1,0.5,1.3,0L14,54.8   c0-0.1,0.1-0.3,0.1-0.4v-1.7c5.1,4.7,12,7.3,19,7.3c7.1,0,13.7-2.5,18.8-7.2V65c0,0.4,0.3,0.8,0.8,0.8H65c0.4,0,0.8-0.3,0.8-0.8V1   C65.8,0.6,65.4,0.3,65,0.3z M12.6,53.6H1.8V10.1h10.8V53.6z M12.6,1.8v6.8H1.8V1.8H12.6z M7.2,63.5l-4.9-8.4H12L7.2,63.5z    M33.1,58.5c-7.2,0-14.1-2.9-19-7.9V15.4c4.9-5,11.9-7.9,19-7.9c7.2,0,13.8,2.7,18.8,7.7v35.6C46.9,55.8,40.2,58.5,33.1,58.5z    M53.4,64.3V1.8h10.9V8h-2c-0.4,0-0.8,0.3-0.8,0.8s0.3,0.8,0.8,0.8h2V15h-4.1c-0.4,0-0.8,0.3-0.8,0.8s0.3,0.8,0.8,0.8h4.1v5.4h-2   c-0.4,0-0.8,0.3-0.8,0.8s0.3,0.8,0.8,0.8h2v5.4h-4.1c-0.4,0-0.8,0.3-0.8,0.8s0.3,0.8,0.8,0.8h4.1v5.4h-2c-0.4,0-0.8,0.3-0.8,0.8   s0.3,0.8,0.8,0.8h2v5.4h-4.1c-0.4,0-0.8,0.3-0.8,0.8s0.3,0.8,0.8,0.8h4.1v5.4h-2c-0.4,0-0.8,0.3-0.8,0.8s0.3,0.8,0.8,0.8h2v5.4   h-4.1c-0.4,0-0.8,0.3-0.8,0.8s0.3,0.8,0.8,0.8h4.1v6.3H53.4z"/><path class="st0" d="M7.2,23.4c-0.4,0-0.8,0.3-0.8,0.8v17.6c0,0.4,0.3,0.8,0.8,0.8s0.8-0.3,0.8-0.8V24.2   C7.9,23.8,7.6,23.4,7.2,23.4z"/></g><text x="0" y="81" fill="#000000" font-size="5px" font-weight="bold" font-family="'Helvetica Neue', Helvetica, Arial-Unicode, Arial, Sans-serif">Created by Creative Stall</text><text x="0" y="86" fill="#000000" font-size="5px" font-weight="bold" font-family="'Helvetica Neue', Helvetica, Arial-Unicode, Arial, Sans-serif">from the Noun Project</text></svg>