<svg xmlns="http://www.w3.org/2000/svg" xmlns:xlink="http://www.w3.org/1999/xlink" version="1.1" x="0px" y="0px" viewBox="85 80.998 30 47.504999999999995" enable-background="new 85 80.998 30 38.004" xml:space="preserve"><path d="M111.895,117.682H86.321V82.319h19.59v5.982h5.981v14.786h1.32V87.368l-6.367-6.37H85v38.004h28.214v-5.143h-1.319V117.682  L111.895,117.682z M107.232,83.253l3.727,3.727h-3.727V83.253z"/><rect x="89.716" y="107.373" width="9.39" height="1.32"/><rect x="89.716" y="110.286" width="18.782" height="1.319"/><rect x="89.716" y="113.199" width="18.782" height="1.32"/><path d="M99.169,89.484c-3.681,0-6.676,2.995-6.676,6.676c0,3.682,2.995,6.677,6.676,6.677c3.683,0,6.677-2.996,6.677-6.677  C105.846,92.479,102.852,89.484,99.169,89.484z M99.169,101.518c-2.953,0-5.355-2.402-5.355-5.356c0-2.953,2.402-5.356,5.355-5.356  s5.356,2.403,5.356,5.356C104.525,99.114,102.122,101.518,99.169,101.518z"/><path d="M114.318,108.027l-6.34-6.34l-1.176,1.176l-0.854-0.854c1.357-1.572,2.186-3.614,2.186-5.849  c0-4.944-4.021-8.966-8.966-8.966c-4.944,0-8.967,4.023-8.967,8.966c0,2.395,0.933,4.646,2.626,6.34  c1.694,1.693,3.946,2.627,6.341,2.627c2.233,0,4.274-0.827,5.847-2.186l0.854,0.854l-1.175,1.175l6.341,6.338  c0.438,0.439,1.021,0.683,1.642,0.683s1.204-0.242,1.641-0.681c0.438-0.438,0.681-1.02,0.682-1.642  C115,109.051,114.759,108.468,114.318,108.027z M99.17,103.807c-2.042,0-3.963-0.795-5.407-2.238  c-1.444-1.444-2.239-3.364-2.239-5.407c0-4.216,3.43-7.646,7.646-7.646s7.646,3.43,7.646,7.646  C106.816,100.377,103.386,103.807,99.17,103.807z M113.385,110.379c-0.376,0.377-1.033,0.378-1.412-0.001l-5.408-5.405l1.414-1.416  l5.407,5.406c0.189,0.189,0.294,0.439,0.294,0.707S113.575,110.188,113.385,110.379z"/><path d="M94.694,96.161h1.321c0-1.739,1.415-3.155,3.154-3.155v-1.32C96.702,91.686,94.694,93.693,94.694,96.161z"/></svg>
