<svg xmlns="http://www.w3.org/2000/svg" xmlns:xlink="http://www.w3.org/1999/xlink" version="1.1" x="0px" y="0px" viewBox="0 0 200 250" enable-background="new 0 0 200 200" xml:space="preserve"><g><g><path fill="#000000" d="M185.163,200H57.596V65.031h127.567V200z M64.01,193.586h114.739V71.445H64.01V193.586z"/><path fill="#000000" d="M185.163,71.445H57.596V42.76h127.567V71.445z M64.01,65.031h114.739V49.174H64.01V65.031z"/><g><rect x="101.426" y="53.896" fill="#000000" width="6.413" height="6.414"/><rect x="88.597" y="53.896" fill="#000000" width="6.414" height="6.414"/><rect x="75.77" y="53.896" fill="#000000" width="6.414" height="6.414"/></g></g><g><rect x="75.77" y="82.984" fill="#000000" width="19.955" height="6.414"/><rect x="95.724" y="109.461" fill="#000000" width="21.457" height="6.414"/><rect x="95.724" y="122.689" fill="#000000" width="21.457" height="6.414"/><rect x="95.724" y="162.393" fill="#000000" width="21.457" height="6.414"/><rect x="95.724" y="175.625" fill="#000000" width="21.457" height="6.414"/><rect x="75.77" y="96.212" fill="#000000" width="41.411" height="6.415"/><rect x="75.77" y="135.924" fill="#000000" width="19.955" height="6.414"/><rect x="75.77" y="149.153" fill="#000000" width="41.411" height="6.414"/><rect x="125.574" y="109.461" fill="#000000" width="21.462" height="6.414"/><rect x="125.574" y="122.689" fill="#000000" width="41.416" height="6.414"/><rect x="125.574" y="96.212" fill="#000000" width="21.462" height="6.415"/><rect x="125.574" y="162.401" fill="#000000" width="21.462" height="6.414"/><rect x="125.574" y="175.63" fill="#000000" width="41.416" height="6.414"/><rect x="125.574" y="149.153" fill="#000000" width="21.462" height="6.414"/></g><polygon fill="#000000" points="50.113,178.62 36.216,178.62 36.216,21.38 163.783,21.38 163.783,35.277 157.369,35.277    157.369,27.794 42.63,27.794 42.63,172.206 50.113,172.206  "/><polygon fill="#000000" points="28.733,157.24 14.836,157.24 14.836,0 142.403,0 142.403,13.897 135.989,13.897 135.989,6.414    21.25,6.414 21.25,150.826 28.733,150.826  "/><g><polygon fill="#000000" points="185.163,17.46 178.749,17.46 178.749,6.414 167.703,6.414 167.703,0 185.163,0   "/><polygon fill="#000000" points="32.297,200 14.836,200 14.836,182.537 21.25,182.537 21.25,193.586 32.297,193.586   "/></g></g><text x="0" y="215" fill="#000000" font-size="5px" font-weight="bold" font-family="'Helvetica Neue', Helvetica, Arial-Unicode, Arial, Sans-serif">Created by Maxim Basinski</text><text x="0" y="220" fill="#000000" font-size="5px" font-weight="bold" font-family="'Helvetica Neue', Helvetica, Arial-Unicode, Arial, Sans-serif">from the Noun Project</text></svg>