<svg xmlns="http://www.w3.org/2000/svg" xmlns:xlink="http://www.w3.org/1999/xlink" version="1.1" x="0px" y="0px" viewBox="0 0 200 250" enable-background="new 0 0 200 200" xml:space="preserve"><g><g><path fill="#000000" d="M200,185.7H0V38.619h200V185.7z M7.004,178.696h185.992V45.623H7.004V178.696z"/><path fill="#000000" d="M200,45.623H0V14.3h200V45.623z M7.004,38.619h185.992V21.304H7.004V38.619z"/><rect x="62.257" y="42.121" fill="#000000" width="7.004" height="140.078"/><g><rect x="46.304" y="26.459" fill="#000000" width="7.782" height="7.004"/><rect x="30.739" y="26.459" fill="#000000" width="7.782" height="7.004"/><rect x="15.175" y="26.459" fill="#000000" width="7.782" height="7.004"/></g></g><g><g><path fill="#000000" d="M122.179,76.751H99.611V54.183h22.568V76.751z M106.615,69.747h8.56v-8.56h-8.56V69.747z"/><path fill="#000000" d="M153.308,76.751h-22.568V54.183h22.568V76.751z M137.743,69.747h8.561v-8.56h-8.561V69.747z"/><path fill="#000000" d="M184.436,76.751h-22.567V54.183h22.567V76.751z M168.872,69.747h8.56v-8.56h-8.56V69.747z"/></g><path fill="#000000" d="M184.436,107.879H99.611V85.312h84.825V107.879z M106.615,100.875h70.816v-8.56h-70.816V100.875z"/><path fill="#000000" d="M184.436,139.008H99.611v-22.568h84.825V139.008z M106.615,132.004h70.816v-8.561h-70.816V132.004z"/><path fill="#000000" d="M137.743,170.136H99.611v-22.567h38.132V170.136z M106.615,163.132h24.124v-8.56h-24.124V163.132z"/><g><polygon fill="#000000" points="92.218,162.354 77.821,162.354 77.821,61.965 92.218,61.965 92.218,68.969 84.825,68.969      84.825,155.351 92.218,155.351    "/><rect x="81.323" y="93.093" fill="#000000" width="10.895" height="7.004"/><rect x="81.323" y="124.222" fill="#000000" width="10.895" height="7.004"/></g><g><rect x="177.043" y="155.351" fill="#000000" width="7.782" height="7.004"/><rect x="161.479" y="155.351" fill="#000000" width="7.782" height="7.004"/><rect x="145.914" y="155.351" fill="#000000" width="7.782" height="7.004"/></g></g><g><rect x="15.175" y="100.875" fill="#000000" width="38.91" height="7.003"/><rect x="15.175" y="116.439" fill="#000000" width="38.91" height="7.004"/><rect x="15.175" y="132.004" fill="#000000" width="38.91" height="7.004"/><rect x="15.175" y="147.568" fill="#000000" width="38.91" height="7.004"/><rect x="15.175" y="163.132" fill="#000000" width="38.91" height="7.004"/></g><path fill="#000000" d="M53.696,92.315H15.564V54.183h38.132V92.315z M22.568,85.312h24.125V61.187H22.568V85.312z"/></g></svg>
