<svg xmlns="http://www.w3.org/2000/svg" xmlns:xlink="http://www.w3.org/1999/xlink" version="1.1" x="0px" y="0px" viewBox="0 0 66 82.5" style="enable-background:new 0 0 66 66;" xml:space="preserve"><style type="text/css">
	.st0{fill:#000100;}
</style><g><path class="st0" d="M65,56.8H10.1c-0.1,0-0.2,0-0.3,0.1l-9.1,3.7c-0.6,0.3-0.6,1.1,0,1.4l9.1,3.7   c0.1,0,0.2,0.1,0.3,0.1H65c0.4,0,0.8-0.3,0.8-0.8v-7.4C65.8,57.2,65.4,56.8,65,56.8z M11.3,58.3h45.6v5.9H11.3V58.3z M3,61.3   l6.9-2.8v5.6L3,61.3z M64.3,64.3h-5.8v-5.9h5.8V64.3z"/><path class="st0" d="M6.9,22.8H10c0.4,0,0.8-0.3,0.8-0.8s-0.3-0.8-0.8-0.8H6.9c-0.4,0-0.8,0.3-0.8,0.8   S6.5,22.8,6.9,22.8z"/><path class="st0" d="M11.8,16.4c-0.4,0-0.8,0.3-0.8,0.8v3.2c0,0.4,0.3,0.8,0.8,0.8s0.8-0.3,0.8-0.8v-3.2   C12.5,16.7,12.2,16.4,11.8,16.4z"/><path class="st0" d="M39.4,22.8h3.2c0.4,0,0.8-0.3,0.8-0.8s-0.3-0.8-0.8-0.8h-3.2c-0.4,0-0.8,0.3-0.8,0.8   S39,22.8,39.4,22.8z"/><path class="st0" d="M38.4,17.1c0-0.4-0.3-0.8-0.8-0.8s-0.8,0.3-0.8,0.8v3.2c0,0.4,0.3,0.8,0.8,0.8   s0.8-0.3,0.8-0.8V17.1z"/><path class="st0" d="M39.4,48.5h3.2c0.4,0,0.8-0.3,0.8-0.8S43,47,42.6,47h-3.2c-0.4,0-0.8,0.3-0.8,0.8   S39,48.5,39.4,48.5z"/><path class="st0" d="M37.7,49c-0.4,0-0.8,0.3-0.8,0.8v3c0,0.4,0.3,0.8,0.8,0.8s0.8-0.3,0.8-0.8v-3   C38.4,49.3,38.1,49,37.7,49z"/><path class="st0" d="M6.9,48.5H10c0.4,0,0.8-0.3,0.8-0.8S10.5,47,10,47H6.9c-0.4,0-0.8,0.3-0.8,0.8   S6.5,48.5,6.9,48.5z"/><path class="st0" d="M11,52.7c0,0.4,0.3,0.8,0.8,0.8s0.8-0.3,0.8-0.8v-3c0-0.4-0.3-0.8-0.8-0.8S11,49.3,11,49.8   V52.7z"/><path class="st0" d="M22.6,41.8l2.1-1.4l3.2,4.7c0.2,0.4,0.7,0.4,1,0.2l3.4-2.3c0.3-0.2,0.4-0.7,0.2-1l-3.2-4.7   l2.3-1.6c0.5-0.3,0.4-1.1-0.2-1.3l-8.6-2.8c-0.5-0.2-1,0.2-1,0.7l-0.5,9.1C21.3,41.7,22,42.1,22.6,41.8z M23.3,33.1l6.2,2.1   l-1.7,1.2c-0.3,0.2-0.4,0.7-0.2,1l3.2,4.7l-2.2,1.5l-3.2-4.7c-0.2-0.4-0.7-0.4-1-0.2l-1.5,1L23.3,33.1z"/><path class="st0" d="M65,0.3H1C0.6,0.3,0.3,0.6,0.3,1v11c0,0.4,0.3,0.8,0.8,0.8h64c0.4,0,0.8-0.3,0.8-0.8V1   C65.8,0.6,65.4,0.3,65,0.3z M64.3,11.2h-5.7V9.7c0-0.4-0.3-0.8-0.8-0.8s-0.8,0.3-0.8,0.8v1.5h-6.8v-3c0-0.4-0.3-0.8-0.8-0.8   s-0.8,0.3-0.8,0.8v3H42V9.7C42,9.3,41.7,9,41.3,9s-0.8,0.3-0.8,0.8v1.5h-6.8v-3c0-0.4-0.3-0.8-0.8-0.8s-0.8,0.3-0.8,0.8v3h-6.8V9.7   c0-0.4-0.3-0.8-0.8-0.8S24,9.3,24,9.7v1.5h-6.8v-3c0-0.4-0.3-0.8-0.8-0.8s-0.8,0.3-0.8,0.8v3H8.9V9.7C8.9,9.3,8.6,9,8.2,9   S7.4,9.3,7.4,9.7v1.5H1.8V1.8h62.5V11.2z"/><path class="st0" d="M12.6,22.1c-0.4,0-0.8,0.3-0.8,0.8v24.3c0,0.4,0.3,0.8,0.8,0.8h24.2c0.4,0,0.8-0.3,0.8-0.8   V22.9c0-0.4-0.3-0.8-0.8-0.8H12.6z M36.1,46.4H13.4V23.6h22.7V46.4z"/><path class="st0" d="M54,33.2v1.5c0,0.4,0.3,0.8,0.8,0.8s0.8-0.3,0.8-0.8v-1.5c0-0.4-0.3-0.8-0.8-0.8   S54,32.8,54,33.2z"/><path class="st0" d="M48.1,17.9c-0.4,0-0.8,0.3-0.8,0.8v3.8c0,2.3,1.8,4.1,4.1,4.1c1.4,0,2.6,1.2,2.6,2.6v0.5   h-1.5c-2.4,0-4.3,1.9-4.3,4.3v8.7c0,3.6,2.9,6.5,6.5,6.5c3.6,0,6.5-2.9,6.5-6.5c0-3.3,0-5.4,0-8.7c0-2.4-1.9-4.3-4.3-4.3h-1.5v-0.5   c0-2.3-1.8-4.1-4.1-4.1c-1.4,0-2.6-1.2-2.6-2.6v-3.8C48.9,18.3,48.5,17.9,48.1,17.9z M54.7,47.6c-2.8,0-5-2.3-5-5v-4.1h10v4.1   C59.7,45.4,57.5,47.6,54.7,47.6z M59.7,33.9V37h-10v-3.1c0-1.5,1.2-2.8,2.8-2.8H57C58.5,31.1,59.7,32.4,59.7,33.9z"/></g></svg>
