<svg xmlns="http://www.w3.org/2000/svg" xmlns:xlink="http://www.w3.org/1999/xlink" version="1.1" x="0px" y="0px" viewBox="0 0 200 250" enable-background="new 0 0 200 200" xml:space="preserve"><g><g><path fill="#000000" d="M40.59,99.998h-6.353c0-36.26,29.5-65.76,65.763-65.76h3.175v11.978l18.685-18.686L103.175,8.847v11.98    H100c-43.657,0-79.174,35.516-79.174,79.171h-6.353c0-46.095,36.655-83.791,82.351-85.466V4.587c0-1.858,1.108-3.522,2.826-4.237    c1.736-0.711,3.696-0.32,5.005,0.993l26.188,26.187l-26.188,26.189c-1.311,1.313-3.271,1.708-4.992,0.998    c-1.731-0.72-2.84-2.383-2.84-4.242v-9.801C65.535,42.331,40.59,68.307,40.59,99.998z"/></g><g><path fill="#000000" d="M98.583,200c-1.191,0-2.36-0.467-3.24-1.346l-26.188-26.188l26.188-26.186    c1.318-1.32,3.281-1.707,5.003-0.995c1.714,0.706,2.831,2.371,2.831,4.237v9.803c31.286-1.657,56.23-27.634,56.23-59.327h6.353    c0,36.263-29.499,65.762-65.76,65.762h-3.176v-11.977l-18.685,18.683l18.685,18.683v-11.979H100    c43.656,0,79.174-35.517,79.174-79.171h6.353c0,46.095-36.654,83.792-82.35,85.466v9.945c0,1.858-1.11,3.523-2.828,4.237    C99.777,199.884,99.176,200,98.583,200z"/></g><g><path fill="#000000" d="M100,136.349c-20.045,0-36.352-16.306-36.352-36.351c0-20.042,16.307-36.349,36.352-36.349    c20.044,0,36.352,16.306,36.352,36.349C136.352,120.043,120.044,136.349,100,136.349z M100,70.002    c-16.541,0-29.999,13.457-29.999,29.996c0,16.543,13.458,29.998,29.999,29.998c16.541,0,29.999-13.455,29.999-29.998    C129.999,83.459,116.541,70.002,100,70.002z"/><polygon fill="#000000" points="96.586,113.641 82.872,99.928 87.364,95.436 96.585,104.657 112.638,88.601 117.129,93.093   "/></g><g><path fill="#000000" d="M60.936,165.195c-2.121-1.274-4.208-2.669-6.198-4.147l4.208-5.669c1.806,1.341,3.7,2.608,5.625,3.764    L60.936,165.195z M48.975,156.313c-1.833-1.662-3.609-3.435-5.272-5.269l5.228-4.745c1.511,1.665,3.121,3.275,4.786,4.786    L48.975,156.313z M38.969,145.285c-1.478-1.991-2.876-4.075-4.15-6.195l6.049-3.637c1.155,1.924,2.424,3.815,3.767,5.621    L38.969,145.285z M31.295,132.519c-1.062-2.241-2.024-4.56-2.857-6.887l6.645-2.38c0.756,2.109,1.627,4.21,2.589,6.242    L31.295,132.519z M26.271,118.493c-0.601-2.407-1.089-4.869-1.45-7.318l6.984-1.028c0.328,2.22,0.77,4.453,1.315,6.634    L26.271,118.493z"/></g><g><path fill="#000000" d="M168.197,89.849c-0.328-2.225-0.771-4.456-1.315-6.631l6.847-1.715c0.601,2.402,1.089,4.864,1.453,7.318    L168.197,89.849z M164.919,76.744c-0.761-2.118-1.632-4.216-2.592-6.243l6.378-3.024c1.059,2.233,2.021,4.549,2.859,6.885    L164.919,76.744z M159.132,64.543c-1.161-1.927-2.427-3.819-3.767-5.622l5.666-4.21c1.476,1.988,2.873,4.072,4.149,6.196    L159.132,64.543z M151.066,53.693c-1.505-1.66-3.115-3.267-4.783-4.781l4.739-5.23c1.839,1.668,3.615,3.441,5.274,5.272    L151.066,53.693z M141.05,44.616c-1.804-1.34-3.697-2.605-5.625-3.764l3.634-6.052c2.126,1.277,4.211,2.672,6.198,4.15    L141.05,44.616z"/></g></g></svg>
