<svg xmlns="http://www.w3.org/2000/svg" xmlns:xlink="http://www.w3.org/1999/xlink" version="1.1" x="0px" y="0px" viewBox="0 0 64 80" enable-background="new 0 0 64 64" xml:space="preserve"><path d="M31,54.586L8.707,32.293c-2.304-2.304-3.733-4.7-4.346-7.293H6v-6H4.349C5.716,13.225,10.962,9,17,9s11.284,4.225,12.651,10  H28v2H17v2h11v2h6v-2h11v-2H34v-2h-1.651C33.716,13.225,38.962,9,45,9c6.037,0,11.283,4.225,12.651,10H56v6h1.64  c-0.613,2.593-2.043,4.989-4.347,7.293l1.414,1.414c2.709-2.709,4.332-5.568,4.968-8.707H62v-6h-2.314C58.279,12.103,52.124,7,45,7  c-6.288,0-11.819,3.978-14,9.652C28.819,10.978,23.288,7,17,7C9.876,7,3.72,12.103,2.315,19H0v6h2.325  c0.635,3.139,2.258,5.998,4.968,8.707L31,57.414l12.707-12.707l-1.414-1.414L31,54.586z M60,23h-2v-2h2V23z M32,23h-2v-2h2V23z   M2,21h2v2H2V21z"/><rect x="30" y="44.999" width="2" height="2"/><rect x="30" y="40.999" width="2" height="2"/><rect x="30" y="36.999" width="2" height="2"/><rect x="30" y="32.999" width="2" height="2"/><path d="M41.313,31.313l8.289,22.5l2.302-2.301l1.921-7.688l7.688-1.921l2.301-2.302L41.313,31.313z M52.176,42.176l-1.912,7.646  l-5.576-15.135l15.135,5.576L52.176,42.176z"/></svg>
